<?xml version="1.0" encoding="utf-8"?>
<!-- Generator: Adobe Illustrator 16.0.0, SVG Export Plug-In . SVG Version: 6.00 Build 0)  -->
<!DOCTYPE svg PUBLIC "-//W3C//DTD SVG 1.1//EN" "http://www.w3.org/Graphics/SVG/1.1/DTD/svg11.dtd">
<svg version="1.1" id="Capa_1" xmlns="http://www.w3.org/2000/svg" xmlns:xlink="http://www.w3.org/1999/xlink" x="0px" y="0px"
	 width="147px" height="111.877px" viewBox="28.5 0 147 111.877" enable-background="new 28.5 0 147 111.877" xml:space="preserve">
<g>
	<g>
		<g>
			<path fill="#3F3E3E" d="M30.622,77.538v6.849c0,2.604,1.158,3.714,2.701,3.714c1.736,0,2.846-1.157,2.846-3.714v-6.849h1.495
				v6.753c0,3.568-1.881,5.016-4.389,5.016c-2.363,0-4.147-1.351-4.147-4.968V77.49L30.622,77.538z"/>
			<path fill="#3F3E3E" d="M41.811,83.085c0-0.868,0-1.543-0.048-2.268h1.351l0.096,1.399h0.048
				c0.434-0.771,1.399-1.544,2.749-1.544c1.158,0,2.942,0.675,2.942,3.521v4.969h-1.496v-4.823c0-1.351-0.482-2.46-1.929-2.46
				c-1.013,0-1.784,0.724-2.025,1.544c-0.048,0.192-0.097,0.434-0.097,0.723v5.017h-1.495L41.811,83.085z"/>
			<path fill="#3F3E3E" d="M54.688,78.503c0,0.531-0.337,0.917-0.964,0.917c-0.531,0-0.917-0.435-0.917-0.917
				c0-0.53,0.386-0.965,0.965-0.965C54.351,77.538,54.688,77.973,54.688,78.503z M53,89.162v-8.345h1.495v8.345H53z"/>
			<path fill="#3F3E3E" d="M65.877,76.912V86.99c0,0.725,0,1.592,0.048,2.172h-1.351l-0.048-1.447h-0.049
				c-0.482,0.916-1.495,1.639-2.845,1.639c-2.026,0-3.569-1.688-3.569-4.243c0-2.749,1.688-4.485,3.713-4.485
				c1.254,0,2.123,0.578,2.508,1.254h0.048v-4.967H65.877L65.877,76.912z M64.334,84.193c0-0.192,0-0.434-0.048-0.627
				c-0.242-0.964-1.062-1.735-2.17-1.735c-1.543,0-2.508,1.398-2.508,3.231c0,1.688,0.82,3.086,2.459,3.086
				c1.013,0,1.929-0.676,2.219-1.784c0.048-0.193,0.048-0.435,0.048-0.676V84.193z"/>
			<path fill="#3F3E3E" d="M74.606,89.162l-0.096-1.062h-0.049c-0.482,0.676-1.35,1.253-2.556,1.253
				c-1.688,0-2.557-1.205-2.557-2.41c0-2.026,1.785-3.136,5.016-3.087v-0.193c0-0.675-0.193-1.93-1.881-1.93
				c-0.772,0-1.592,0.241-2.17,0.628l-0.338-1.014c0.676-0.434,1.688-0.723,2.75-0.723c2.556,0,3.183,1.736,3.183,3.424v3.136
				c0,0.722,0.049,1.446,0.145,1.978H74.606L74.606,89.162z M74.414,84.917c-1.64-0.048-3.521,0.241-3.521,1.882
				c0,0.964,0.675,1.446,1.447,1.446c1.061,0,1.785-0.675,2.026-1.398c0.048-0.145,0.096-0.338,0.096-0.482L74.414,84.917z"/>
			<path fill="#3F3E3E" d="M87.146,76.912V86.99c0,0.725,0,1.592,0.049,2.172h-1.351l-0.048-1.447h-0.048
				c-0.482,0.916-1.495,1.639-2.845,1.639c-2.026,0-3.569-1.688-3.569-4.243c0-2.749,1.688-4.485,3.713-4.485
				c1.254,0,2.123,0.578,2.508,1.254h0.048v-4.967H87.146L87.146,76.912z M85.603,84.193c0-0.192,0-0.434-0.048-0.627
				c-0.241-0.964-1.061-1.735-2.17-1.735c-1.543,0-2.508,1.398-2.508,3.231c0,1.688,0.82,3.086,2.46,3.086
				c1.013,0,1.929-0.676,2.218-1.784c0.048-0.193,0.048-0.435,0.048-0.676V84.193L85.603,84.193z"/>
			<path fill="#3F3E3E" d="M103.736,76.912V86.99c0,0.725,0,1.592,0.048,2.172h-1.35l-0.048-1.447h-0.048
				c-0.483,0.916-1.496,1.639-2.846,1.639c-2.025,0-3.569-1.688-3.569-4.243c0-2.749,1.688-4.485,3.714-4.485
				c1.254,0,2.122,0.578,2.508,1.254h0.048v-4.967H103.736L103.736,76.912z M102.241,84.193c0-0.192,0-0.434-0.048-0.627
				c-0.241-0.964-1.061-1.735-2.17-1.735c-1.543,0-2.508,1.398-2.508,3.231c0,1.688,0.82,3.086,2.46,3.086
				c1.013,0,1.929-0.676,2.218-1.784c0.048-0.193,0.048-0.435,0.048-0.676V84.193L102.241,84.193z"/>
			<path fill="#3F3E3E" d="M108.753,85.255c0.048,2.025,1.35,2.894,2.844,2.894c1.062,0,1.737-0.192,2.315-0.434l0.242,1.062
				c-0.531,0.24-1.447,0.53-2.75,0.53c-2.556,0-4.099-1.688-4.099-4.196s1.495-4.485,3.906-4.485c2.7,0,3.424,2.411,3.424,3.906
				c0,0.29-0.048,0.531-0.048,0.724H108.753L108.753,85.255z M113.188,84.193c0-0.964-0.386-2.46-2.122-2.46
				c-1.543,0-2.218,1.399-2.313,2.46H113.188z"/>
			<path fill="#3F3E3E" d="M125.343,85.496l-1.206,3.666h-1.543l3.955-11.575h1.783l3.955,11.575h-1.592l-1.253-3.666H125.343z
				 M129.152,84.339l-1.156-3.327c-0.242-0.772-0.435-1.447-0.58-2.123h-0.048c-0.192,0.676-0.338,1.398-0.578,2.123l-1.157,3.375
				h3.52V84.339L129.152,84.339z"/>
			<path fill="#3F3E3E" d="M135.471,83.52c0-1.062-0.049-1.931-0.049-2.702h1.351l0.049,1.447h0.047
				c0.628-1.013,1.592-1.64,2.942-1.64c2.026,0,3.521,1.688,3.521,4.244c0,2.99-1.832,4.484-3.761,4.484
				c-1.11,0-2.074-0.481-2.557-1.302h-0.048v4.534h-1.495V83.52z M136.966,85.785c0,0.241,0.048,0.434,0.048,0.628
				c0.289,1.06,1.206,1.783,2.267,1.783c1.592,0,2.508-1.302,2.508-3.23c0-1.688-0.868-3.087-2.459-3.087
				c-1.013,0-1.978,0.724-2.267,1.881c-0.049,0.192-0.097,0.434-0.097,0.627V85.785z"/>
			<path fill="#3F3E3E" d="M154.521,84.917c0,3.087-2.122,4.437-4.147,4.437c-2.267,0-4.003-1.639-4.003-4.291
				c0-2.798,1.832-4.438,4.148-4.438C152.832,80.625,154.521,82.361,154.521,84.917z M147.865,85.013
				c0,1.834,1.062,3.184,2.508,3.184c1.447,0,2.508-1.35,2.508-3.23c0-1.399-0.724-3.183-2.508-3.183
				C148.686,81.783,147.865,83.423,147.865,85.013z"/>
			<path fill="#3F3E3E" d="M158.428,80.817l1.832,4.92c0.192,0.53,0.386,1.206,0.531,1.688h0.048
				c0.144-0.481,0.338-1.157,0.53-1.736l1.64-4.871h1.592l-2.267,5.933c-1.062,2.846-1.833,4.34-2.845,5.208
				c-0.725,0.676-1.496,0.917-1.882,0.965l-0.386-1.253c0.386-0.098,0.867-0.339,1.302-0.725c0.435-0.337,0.916-0.916,1.254-1.688
				c0.048-0.146,0.098-0.29,0.098-0.337c0-0.097-0.05-0.194-0.098-0.387l-3.086-7.668L158.428,80.817L158.428,80.817z"/>
			<path fill="#3F3E3E" d="M175.019,84.917c0,3.087-2.123,4.437-4.149,4.437c-2.266,0-4.001-1.639-4.001-4.291
				c0-2.798,1.832-4.438,4.146-4.438C173.378,80.625,175.019,82.361,175.019,84.917z M168.361,85.013
				c0,1.834,1.062,3.184,2.508,3.184c1.447,0,2.509-1.35,2.509-3.23c0-1.399-0.723-3.183-2.509-3.183
				C169.182,81.783,168.361,83.423,168.361,85.013z"/>
		</g>
		<g>
			<path fill="#3F3E3E" d="M28.645,103.92c0-0.966-0.048-1.688-0.048-2.412h1.206l0.048,1.254h0.048
				c0.531-0.916,1.398-1.447,2.604-1.447c1.785,0,3.135,1.495,3.135,3.762c0,2.653-1.64,3.955-3.376,3.955
				c-0.965,0-1.833-0.435-2.267-1.157l0,0v4.003h-1.351V103.92z M29.995,105.897c0,0.191,0.048,0.385,0.048,0.53
				c0.241,0.916,1.061,1.592,2.026,1.592c1.399,0,2.267-1.158,2.267-2.847c0-1.494-0.771-2.749-2.218-2.749
				c-0.917,0-1.785,0.676-2.026,1.688c-0.048,0.145-0.096,0.387-0.096,0.53V105.897z"/>
			<path fill="#3F3E3E" d="M42.872,108.936l-0.097-0.916h-0.048c-0.434,0.577-1.206,1.107-2.267,1.107
				c-1.495,0-2.267-1.061-2.267-2.121c0-1.784,1.592-2.75,4.437-2.75v-0.145c0-0.626-0.145-1.688-1.688-1.688
				c-0.675,0-1.398,0.193-1.929,0.53l-0.289-0.867c0.627-0.386,1.495-0.675,2.411-0.675c2.267,0,2.797,1.542,2.797,3.038v2.749
				c0,0.626,0.048,1.254,0.145,1.784h-1.206V108.936L42.872,108.936z M42.679,105.126c-1.447-0.05-3.135,0.24-3.135,1.688
				c0,0.867,0.578,1.302,1.254,1.302c0.964,0,1.591-0.627,1.784-1.254c0.048-0.146,0.097-0.289,0.097-0.434V105.126z"/>
			<path fill="#3F3E3E" d="M47.599,103.822c0-0.868,0-1.64-0.048-2.314h1.157l0.048,1.446h0.048c0.337-1.012,1.157-1.64,2.025-1.64
				c0.145,0,0.241,0,0.386,0.048v1.255c-0.145-0.049-0.29-0.049-0.435-0.049c-0.964,0-1.64,0.724-1.784,1.737
				c-0.048,0.192-0.048,0.386-0.048,0.626v3.955h-1.351V103.822z"/>
			<path fill="#3F3E3E" d="M58.064,108.936l-0.096-0.916h-0.049c-0.434,0.577-1.206,1.107-2.267,1.107
				c-1.495,0-2.267-1.061-2.267-2.121c0-1.784,1.592-2.75,4.437-2.75v-0.145c0-0.626-0.145-1.688-1.688-1.688
				c-0.675,0-1.398,0.193-1.929,0.53l-0.289-0.867c0.627-0.386,1.495-0.675,2.412-0.675c2.267,0,2.797,1.542,2.797,3.038v2.749
				c0,0.626,0.048,1.254,0.145,1.784h-1.206V108.936L58.064,108.936z M57.871,105.126c-1.447-0.05-3.135,0.24-3.135,1.688
				c0,0.867,0.579,1.302,1.254,1.302c0.965,0,1.591-0.627,1.785-1.254c0.048-0.146,0.096-0.289,0.096-0.434V105.126z"/>
			<path fill="#3F3E3E" d="M68.192,105.462c0.048,1.833,1.206,2.558,2.556,2.558c0.965,0,1.543-0.146,2.025-0.387l0.241,0.964
				c-0.482,0.194-1.302,0.435-2.459,0.435c-2.267,0-3.617-1.495-3.617-3.714c0-2.218,1.302-4.003,3.472-4.003
				c2.412,0,3.039,2.122,3.039,3.473c0,0.289-0.048,0.482-0.048,0.627h-5.208V105.462L68.192,105.462z M72.146,104.498
				c0-0.868-0.337-2.17-1.881-2.17c-1.351,0-1.978,1.254-2.074,2.17H72.146z"/>
			<path fill="#3F3E3E" d="M76.584,98.083h1.35v10.853h-1.35V98.083z"/>
			<path fill="#3F3E3E" d="M88.014,105.655l-1.062,3.231h-1.35l3.472-10.272h1.592l3.521,10.272h-1.398l-1.109-3.231H88.014z
				 M91.39,104.642l-1.013-2.94c-0.241-0.675-0.386-1.303-0.53-1.881h-0.049c-0.144,0.626-0.337,1.254-0.53,1.881l-1.013,2.99
				L91.39,104.642L91.39,104.642z"/>
			<path fill="#3F3E3E" d="M97.033,103.92c0-0.966-0.049-1.688-0.049-2.412h1.206l0.048,1.254h0.048
				c0.53-0.916,1.398-1.447,2.604-1.447c1.785,0,3.134,1.495,3.134,3.762c0,2.653-1.64,3.955-3.376,3.955
				c-0.964,0-1.833-0.435-2.267-1.157h-0.048v4.003h-1.302V103.92z M98.383,105.897c0,0.191,0.048,0.385,0.048,0.53
				c0.241,0.916,1.061,1.592,2.025,1.592c1.398,0,2.267-1.158,2.267-2.847c0-1.494-0.772-2.749-2.219-2.749
				c-0.917,0-1.784,0.676-2.025,1.688c-0.048,0.145-0.097,0.387-0.097,0.53V105.897z"/>
			<path fill="#3F3E3E" d="M107.209,103.822c0-0.868,0-1.64-0.048-2.314h1.156l0.05,1.446h0.047c0.339-1.012,1.158-1.64,2.026-1.64
				c0.145,0,0.24,0,0.386,0.048v1.255c-0.146-0.049-0.29-0.049-0.435-0.049c-0.964,0-1.639,0.724-1.784,1.737
				c-0.049,0.192-0.049,0.386-0.049,0.626v3.955h-1.35V103.822z"/>
			<path fill="#3F3E3E" d="M114.202,105.462c0.048,1.833,1.205,2.558,2.556,2.558c0.965,0,1.543-0.146,2.025-0.387l0.242,0.964
				c-0.483,0.194-1.303,0.435-2.46,0.435c-2.267,0-3.617-1.495-3.617-3.714c0-2.218,1.302-4.003,3.472-4.003
				c2.411,0,3.039,2.122,3.039,3.473c0,0.289-0.048,0.482-0.048,0.627h-5.209V105.462L114.202,105.462z M118.157,104.498
				c0-0.868-0.338-2.17-1.881-2.17c-1.351,0-1.978,1.254-2.074,2.17H118.157z"/>
			<path fill="#3F3E3E" d="M122.594,103.534c0-0.772,0-1.4-0.049-1.978h1.206l0.096,1.205h0.05c0.385-0.724,1.205-1.399,2.459-1.399
				c1.013,0,2.604,0.628,2.604,3.136v4.389h-1.35v-4.245c0-1.205-0.435-2.169-1.688-2.169c-0.869,0-1.592,0.627-1.785,1.35
				c-0.049,0.146-0.096,0.386-0.096,0.628v4.437h-1.447V103.534z"/>
			<path fill="#3F3E3E" d="M138.846,98.083v8.923c0,0.675,0,1.399,0.049,1.93h-1.206l-0.048-1.303h-0.048
				c-0.435,0.82-1.302,1.447-2.508,1.447c-1.784,0-3.184-1.495-3.184-3.763c0-2.459,1.496-3.955,3.328-3.955
				c1.109,0,1.881,0.531,2.219,1.11h0.048v-4.39H138.846z M137.496,104.546c0-0.145,0-0.386-0.048-0.578
				c-0.193-0.868-0.917-1.544-1.93-1.544c-1.398,0-2.218,1.206-2.218,2.846c0,1.495,0.723,2.75,2.17,2.75
				c0.916,0,1.736-0.58,1.978-1.592c0.048-0.194,0.048-0.386,0.048-0.58V104.546z"/>
			<path fill="#3F3E3E" d="M144.007,99.435c0,0.434-0.337,0.819-0.867,0.819c-0.483,0-0.82-0.386-0.82-0.819
				c0-0.482,0.337-0.82,0.82-0.82C143.67,98.614,144.007,98.952,144.007,99.435z M142.512,108.936v-7.379h1.35v7.379H142.512z"/>
			<path fill="#3F3E3E" d="M146.755,108.115l3.329-4.341c0.337-0.386,0.626-0.771,0.965-1.157v-0.049h-4.004v-1.061h5.643v0.82
				l-3.279,4.291c-0.289,0.435-0.627,0.772-0.964,1.158v0.048h4.34v1.062h-5.979v-0.771H146.755L146.755,108.115z"/>
			<path fill="#3F3E3E" d="M159.585,108.936l-0.096-0.916h-0.05c-0.435,0.577-1.205,1.107-2.267,1.107
				c-1.495,0-2.267-1.061-2.267-2.121c0-1.784,1.591-2.75,4.438-2.75v-0.145c0-0.626-0.145-1.688-1.688-1.688
				c-0.675,0-1.398,0.193-1.93,0.53l-0.288-0.867c0.627-0.386,1.494-0.675,2.411-0.675c2.267,0,2.797,1.542,2.797,3.038v2.749
				c0,0.626,0.049,1.254,0.146,1.784h-1.206V108.936L159.585,108.936z M159.392,105.126c-1.446-0.05-3.135,0.24-3.135,1.688
				c0,0.867,0.579,1.302,1.255,1.302c0.964,0,1.591-0.627,1.783-1.254c0.049-0.146,0.097-0.289,0.097-0.434V105.126L159.392,105.126
				z"/>
			<path fill="#3F3E3E" d="M162.526,111.057c0.628-0.048,1.158-0.192,1.448-0.578c0.385-0.435,0.481-1.013,0.481-2.798v-6.173h1.351
				v6.703c0,1.447-0.242,2.363-0.869,3.039c-0.578,0.579-1.591,0.82-2.267,0.82L162.526,111.057z M166.048,99.435
				c0,0.434-0.29,0.819-0.82,0.819c-0.482,0-0.82-0.386-0.82-0.819c0-0.482,0.338-0.82,0.869-0.82
				C165.662,98.614,166.048,98.952,166.048,99.435z"/>
			<path fill="#3F3E3E" d="M170.243,105.462c0.049,1.833,1.206,2.558,2.557,2.558c0.964,0,1.543-0.146,2.024-0.387l0.242,0.964
				c-0.482,0.194-1.303,0.435-2.46,0.435c-2.268,0-3.617-1.495-3.617-3.714c0-2.218,1.303-4.003,3.472-4.003
				c2.412,0,3.039,2.122,3.039,3.473c0,0.289-0.048,0.482-0.048,0.627h-5.209V105.462z M174.149,104.498
				c0-0.868-0.337-2.17-1.88-2.17c-1.351,0-1.978,1.254-2.074,2.17H174.149z"/>
		</g>
	</g>
	<g>
		<g>
			<path fill="#3F3E3E" d="M92.981,63.359C86.084,63.263,80.49,57.62,80.49,50.675V36.737c0-5.064-4.196-9.164-9.308-9.019
				c-4.919,0.144-8.729,4.292-8.729,9.211v9.453c0,9.164-7.283,16.783-16.446,16.928c-9.308,0.145-16.928-7.379-16.928-16.687
				V24.873c0-2.123,1.736-3.858,3.858-3.858l0,0c2.122,0,3.858,1.736,3.858,3.858v21.558c0,4.872,3.81,9.019,8.729,9.164
				c5.064,0.145,9.259-3.955,9.259-8.97v-9.646c0-9.163,7.283-16.832,16.446-16.976c9.308-0.145,16.977,7.379,16.977,16.687v13.938
				c0,2.749,2.218,4.967,4.919,5.016c2.797,0.048,5.064-2.315,5.064-5.112v-13.89c0-9.164,7.427-16.591,16.59-16.591h0.241
				c9.163,0,16.59,7.427,16.59,16.591v6.077h-7.715v-6.077c0-4.919-4.004-8.874-8.875-8.874h-0.241c-4.92,0-8.874,4.003-8.874,8.874
				v13.793C105.906,57.523,100.071,63.456,92.981,63.359z"/>
		</g>
		<g>
			<path fill="#3F3E3E" d="M171.159,62.202L171.159,62.202c-2.122,0-3.857-1.736-3.857-3.858V36.641
				c0-4.919-4.003-8.874-8.874-8.874h-0.193c-4.92,0-8.874,4.003-8.874,8.874v6.415h-7.717v-6.415
				c0-9.164,7.428-16.591,16.591-16.591h0.193c9.162,0,16.591,7.427,16.591,16.591v21.703
				C175.019,60.465,173.281,62.202,171.159,62.202z"/>
		</g>
		<g>
			<path fill="#3F3E3E" d="M145.453,62.202L145.453,62.202c-2.122,0-3.857-1.736-3.857-3.858V43.778h7.717v14.565
				C149.264,60.465,147.575,62.202,145.453,62.202z"/>
		</g>
		<g>
			<path fill="#3F3E3E" d="M157.993,46.286h-43.357c-1.978,0-3.521-1.591-3.521-3.521l0,0c0-1.977,1.592-3.521,3.521-3.521h43.357
				c1.978,0,3.521,1.591,3.521,3.521l0,0C161.562,44.695,160.02,46.286,157.993,46.286z"/>
		</g>
		<g>
			<path fill="#3F3E3E" d="M71.809,46.576H58.643v-7.09h13.167c1.978,0,3.521,1.592,3.521,3.521l0,0
				C75.33,44.984,73.787,46.576,71.809,46.576z"/>
		</g>
	</g>
	<rect x="28.5" y="69.291" fill="#3F3E3E" width="147" height="0.964"/>
</g>
</svg>
