<svg xmlns="http://www.w3.org/2000/svg" width="231" height="195" viewBox="0 0 231 195">
<g>
<path d="M 52.58,181.12 C52.28,180.64 52.98,176.93 54.13,172.87 C55.28,168.82 56.44,161.87 56.71,157.44 C57.51,144.04 54.43,139.84 42.95,138.69 C40.43,138.44 37.04,138.85 35.13,139.63 C33.27,140.38 31.59,141.00 31.38,141.00 C30.39,141.00 31.32,138.70 35.01,131.98 C39.16,124.44 39.48,122.35 36.01,125.49 C34.02,127.29 34.00,127.25 34.00,121.62 C34.00,117.49 34.41,115.78 35.50,115.36 C37.47,114.61 37.42,112.38 35.42,111.61 C32.94,110.66 29.00,110.90 29.00,112.00 C29.00,112.55 28.32,113.00 27.50,113.00 C26.68,113.00 26.01,112.66 26.03,112.25 C26.08,111.01 30.82,106.00 31.94,106.00 C34.39,106.00 46.11,93.01 48.63,87.49 C51.13,82.03 51.24,81.15 50.75,69.63 C50.13,55.03 47.90,44.80 43.37,35.77 C41.52,32.08 40.00,28.81 40.00,28.52 C40.00,27.30 42.93,28.16 45.41,30.11 C52.20,35.45 81.60,53.02 84.73,53.61 C86.65,53.97 91.44,53.92 95.37,53.49 C99.29,53.06 105.58,52.62 109.35,52.50 C113.89,52.36 116.49,51.82 117.05,50.91 C117.58,50.07 119.23,49.66 121.37,49.84 C126.94,50.32 136.00,44.74 136.00,40.83 C136.00,38.58 137.56,38.42 138.39,40.58 C139.33,43.02 139.11,46.00 138.00,46.00 C137.45,46.00 137.00,48.22 137.00,50.93 C137.00,54.94 137.36,55.98 138.95,56.48 C140.71,57.04 150.78,53.55 152.00,51.95 C152.28,51.59 154.53,50.04 157.00,48.51 C159.47,46.97 163.26,44.33 165.42,42.64 C167.57,40.95 170.00,39.47 170.82,39.35 C171.63,39.23 172.57,38.77 172.90,38.32 C173.55,37.43 177.65,35.00 178.49,35.00 C178.77,35.00 179.00,35.67 179.00,36.50 C179.00,37.33 178.50,38.00 177.89,38.00 C177.25,38.00 177.01,38.94 177.33,40.25 C177.64,41.49 177.23,43.37 176.44,44.44 C175.04,46.33 175.00,46.32 175.00,44.11 C175.00,41.35 172.95,41.76 171.41,44.82 C170.81,46.01 170.09,46.75 169.80,46.47 C169.52,46.18 167.61,47.99 165.57,50.47 C161.71,55.19 161.66,55.79 165.32,53.83 C166.52,53.19 164.46,55.94 160.75,59.95 C156.45,64.59 154.00,68.09 154.00,69.56 C154.00,70.84 153.55,72.16 153.00,72.50 C152.45,72.84 152.00,73.94 152.00,74.95 C152.00,75.96 151.32,77.05 150.50,77.36 C148.08,78.29 148.46,88.46 151.00,91.00 C152.10,92.10 153.34,93.11 153.75,93.25 C154.16,93.39 154.37,93.88 154.21,94.36 C153.67,95.98 156.24,97.99 160.37,99.17 C165.99,100.79 165.74,100.73 168.07,100.88 C169.69,100.97 170.01,101.48 169.56,103.25 L 168.99,105.50 L 170.15,103.25 C171.65,100.32 173.36,100.32 172.37,103.25 C171.95,104.49 171.64,106.51 171.70,107.75 C171.80,110.18 171.69,110.23 165.00,110.56 C158.04,110.90 158.00,110.91 158.00,112.50 C158.00,113.33 157.32,114.00 156.50,114.00 C155.68,114.00 155.00,113.33 155.00,112.50 C155.00,109.76 150.44,110.81 147.65,114.19 C146.19,115.95 145.00,116.82 145.00,116.12 C145.00,115.21 144.58,115.27 143.50,116.36 C142.68,117.18 142.00,118.99 142.00,120.38 C142.00,121.77 141.29,123.30 140.43,123.78 C138.78,124.70 137.41,136.00 138.95,136.00 C139.38,136.00 140.02,137.69 140.37,139.75 C140.72,141.81 141.28,144.96 141.62,146.75 C142.22,149.98 142.20,150.00 138.18,150.00 C135.93,150.00 133.48,150.66 132.64,151.50 C131.82,152.32 130.73,153.00 130.22,153.00 C129.72,153.00 128.78,154.01 128.13,155.25 C127.02,157.38 126.99,157.35 127.52,154.67 C128.30,150.71 126.43,152.19 125.54,156.23 C124.95,158.97 124.71,159.19 124.09,157.58 C123.51,156.05 123.09,156.62 122.04,160.36 C120.54,165.72 118.40,168.03 119.47,163.13 C120.84,156.90 119.17,160.18 117.50,167.01 C116.55,170.86 115.33,174.30 114.78,174.63 C114.15,175.02 114.03,174.14 114.45,172.22 C115.18,168.91 113.41,166.77 111.89,169.12 C110.69,170.98 109.32,168.86 108.47,163.83 C107.91,160.53 105.10,156.39 104.94,158.63 C104.90,159.11 104.47,158.50 103.98,157.28 C103.28,155.54 102.33,155.09 99.63,155.19 C97.54,155.27 95.49,154.63 94.43,153.58 C93.13,152.27 91.79,151.99 89.10,152.47 C79.32,154.20 70.07,161.38 59.75,175.25 C54.79,181.91 53.64,182.85 52.58,181.12 M 62.86,167.81 C74.71,152.79 88.65,145.73 97.00,150.50 C98.38,151.29 100.69,151.95 102.15,151.96 C104.97,152.00 109.06,156.04 112.26,161.95 L 114.02,165.20 L 118.08,159.12 C123.47,151.05 129.67,147.00 136.65,147.00 C139.51,147.00 139.52,146.86 136.89,140.00 C135.73,136.97 134.58,132.38 134.35,129.79 C133.32,118.55 143.58,109.31 158.50,108.05 L 165.50,107.47 L 159.50,103.61 C148.20,96.36 147.37,95.71 145.69,92.78 C144.76,91.16 144.00,87.96 144.01,85.67 C144.03,78.84 152.06,63.57 161.47,52.50 C168.88,43.77 169.87,42.41 168.00,43.46 C167.18,43.92 164.70,45.61 162.50,47.21 C155.43,52.34 147.68,56.96 143.30,58.63 C139.32,60.15 138.86,60.14 136.39,58.52 C133.96,56.93 133.79,56.39 134.33,51.89 C134.64,49.20 134.76,47.00 134.58,47.00 C134.40,47.00 132.18,48.16 129.64,49.58 C126.89,51.11 123.86,52.03 122.14,51.85 C120.55,51.68 118.63,52.05 117.88,52.67 C117.12,53.28 113.12,54.04 109.00,54.35 C82.24,56.39 85.17,56.53 78.00,52.79 C74.42,50.93 66.17,46.12 59.67,42.12 C53.16,38.11 47.60,35.07 47.31,35.35 C47.03,35.64 47.72,38.71 48.85,42.19 C51.81,51.30 53.28,63.47 52.85,75.29 C52.49,84.89 52.24,85.95 49.23,90.65 C47.44,93.42 43.12,98.45 39.62,101.81 L 33.25,107.93 L 36.62,109.04 C38.48,109.65 40.03,110.46 40.08,110.83 C40.63,115.64 40.98,118.02 41.55,120.74 C42.09,123.35 41.63,124.91 39.11,128.83 C37.40,131.49 36.00,134.09 36.00,134.59 C36.00,135.09 39.04,135.52 42.75,135.54 C50.37,135.59 54.96,137.49 57.74,141.73 C60.40,145.79 60.13,160.39 57.22,169.36 C53.97,179.39 53.65,179.48 62.86,167.81 M 175.02,109.31 C175.02,108.86 175.47,107.83 176.00,107.00 C176.84,105.71 176.97,105.73 176.98,107.19 C176.99,108.12 176.55,109.16 176.00,109.50 C175.45,109.84 175.01,109.75 175.02,109.31 M 102.31,119.78 C97.78,117.09 96.38,112.37 98.67,107.56 C99.86,105.08 100.96,104.02 102.05,104.30 C103.25,104.62 103.56,104.17 103.26,102.60 C102.80,100.17 112.69,76.00 114.14,76.00 C116.94,76.00 120.72,79.18 121.69,82.34 C122.68,85.58 122.35,86.63 116.73,97.66 C113.41,104.17 110.31,109.65 109.85,109.83 C109.38,110.02 108.98,111.37 108.96,112.83 C108.94,114.30 108.15,116.89 107.21,118.59 L 105.50,121.68 L 102.31,119.78 M 106.52,114.93 C107.31,111.33 106.29,109.73 104.85,112.30 C104.19,113.48 103.19,113.88 101.93,113.48 C99.73,112.78 99.27,114.87 101.20,116.80 C103.41,119.01 105.80,118.17 106.52,114.93 M 114.94,96.93 C118.34,90.32 120.00,85.94 119.78,84.18 C119.50,81.96 118.49,83.37 113.97,92.30 C109.67,100.79 108.13,103.00 106.75,102.64 C104.72,102.11 104.63,102.43 106.04,105.07 C107.96,108.66 109.74,107.03 114.94,96.93 M 71.04,119.57 C67.30,117.50 65.97,112.45 67.92,107.74 C69.09,104.93 69.97,104.05 71.29,104.38 C72.66,104.73 72.94,104.40 72.49,102.98 C71.97,101.31 74.07,95.48 80.87,79.76 L 82.92,75.02 L 86.40,77.08 C88.61,78.38 90.30,80.39 91.02,82.55 C92.08,85.78 91.79,86.65 85.90,97.74 C82.46,104.21 79.25,109.77 78.75,110.11 C78.25,110.44 77.97,111.34 78.12,112.11 C78.53,114.16 75.77,121.01 74.55,120.96 C73.97,120.95 72.39,120.32 71.04,119.57 M 75.70,115.75 C76.26,114.50 76.36,112.61 75.92,111.50 C75.15,109.58 75.09,109.59 74.42,111.82 C73.87,113.67 73.24,114.03 71.36,113.56 C68.64,112.87 68.29,114.15 70.57,116.43 C72.76,118.62 74.50,118.39 75.70,115.75 M 84.46,96.32 C88.36,88.70 89.91,84.67 89.34,83.65 C88.72,82.55 87.04,84.92 83.00,92.58 C79.98,98.31 76.94,103.00 76.25,103.00 C74.39,103.00 74.74,105.75 76.74,106.88 C77.70,107.41 78.54,107.77 78.61,107.67 C78.67,107.58 81.31,102.47 84.46,96.32 M 86.38,119.56 C84.03,118.54 83.10,117.36 82.62,114.76 C81.80,110.44 84.40,103.56 86.54,104.38 C87.56,104.77 87.92,104.25 87.78,102.60 C87.67,101.32 89.96,94.66 92.87,87.80 L 98.16,75.33 L 101.98,77.22 C105.00,78.71 105.93,79.84 106.46,82.61 C107.01,85.59 106.26,87.79 101.44,97.31 C98.33,103.46 95.11,109.03 94.29,109.68 C93.47,110.33 93.12,111.39 93.51,112.02 C94.23,113.18 91.22,121.03 90.10,120.96 C89.77,120.94 88.10,120.31 86.38,119.56 M 91.13,115.61 C91.87,114.00 91.90,112.64 91.23,111.45 C90.32,109.82 90.18,109.86 89.52,111.92 C88.96,113.69 88.30,114.04 86.43,113.57 C84.47,113.08 84.17,113.28 84.70,114.74 C86.13,118.59 89.56,119.06 91.13,115.61 M 99.94,96.12 C103.57,88.77 105.08,84.64 104.60,83.40 C104.05,81.98 102.64,83.98 98.51,92.03 C94.95,98.95 92.60,102.45 91.56,102.36 C90.70,102.28 90.00,102.76 90.00,103.41 C90.00,104.90 92.04,107.00 93.49,107.00 C94.08,107.00 96.99,102.10 99.94,96.12 Z" fill="rgba(0,0,0,1)"/>
</g>
</svg>