<svg xmlns="http://www.w3.org/2000/svg" width="437" height="340" viewBox="0 0 437 340">
<g>
<path d="M 85.00,339.62 C85.00,339.40 65.88,282.68 42.50,213.56 C19.12,144.45 -0.00,86.81 0.00,85.47 C0.00,83.34 1.97,82.07 16.47,74.83 C25.53,70.31 33.13,66.81 33.34,67.06 C33.56,67.30 37.44,82.57 41.97,101.00 C58.24,167.21 73.94,230.27 74.22,230.53 C74.37,230.68 80.80,225.15 88.50,218.24 C96.20,211.34 109.45,199.46 117.95,191.85 C126.45,184.23 133.70,178.34 134.07,178.75 C134.44,179.16 135.61,186.36 136.69,194.75 L 138.64,210.01 L 109.32,230.16 C93.19,241.24 80.00,250.84 80.00,251.49 C80.00,252.13 85.43,270.78 92.07,292.92 C98.71,315.06 103.93,333.73 103.67,334.41 C102.94,336.31 85.00,341.31 85.00,339.62 M 106.00,274.39 C106.00,273.43 118.86,257.19 126.12,249.00 C170.69,198.71 221.47,168.89 272.54,163.04 C288.99,161.16 287.66,160.64 294.36,171.56 C297.59,176.81 300.34,180.97 300.47,180.80 C305.38,174.73 345.00,115.57 345.01,114.31 C345.01,113.32 342.69,98.43 339.85,81.24 C337.01,64.04 334.89,49.78 335.12,49.54 C335.76,48.91 358.43,45.20 358.93,45.64 C359.17,45.85 360.15,55.52 361.13,67.13 C362.10,78.73 363.08,88.41 363.31,88.64 C363.54,88.87 368.96,81.44 375.35,72.14 L 386.97,55.22 L 393.23,56.76 C396.68,57.61 399.62,58.39 399.76,58.49 C399.90,58.59 392.36,72.28 383.01,88.90 C363.33,123.87 365.02,116.78 367.99,152.00 C369.08,164.93 369.98,177.19 369.99,179.25 L 370.00,183.00 L 365.25,182.99 C356.12,182.96 356.72,183.91 353.56,164.43 C352.00,154.85 350.60,147.00 350.44,147.00 C350.28,147.00 349.51,148.24 348.74,149.75 C346.93,153.29 305.90,226.39 305.46,226.85 C304.92,227.42 281.00,210.72 281.00,209.78 C281.00,209.30 284.37,204.04 288.49,198.08 L 295.98,187.25 L 292.87,186.62 C291.15,186.28 284.45,186.00 277.97,186.00 C246.48,186.00 214.62,196.80 182.00,218.52 C166.72,228.70 156.57,237.27 139.00,254.82 L 122.50,271.29 L 115.50,273.13 C108.02,275.09 106.00,275.36 106.00,274.39 M 369.00,209.85 C367.07,209.31 363.81,208.44 361.75,207.90 L 358.00,206.92 L 358.00,198.96 L 358.00,191.00 L 365.00,191.00 C368.85,191.00 372.00,191.34 372.01,191.75 C372.02,192.80 373.92,204.93 374.60,208.25 C375.22,211.29 374.72,211.44 369.00,209.85 M 80.76,192.60 L 74.03,190.64 L 74.63,160.07 C74.96,143.26 75.52,118.74 75.87,105.60 L 76.50,81.70 L 87.89,76.83 C94.16,74.15 99.44,72.11 99.63,72.30 C99.82,72.49 97.99,93.08 95.56,118.07 C93.14,143.06 90.63,169.57 89.98,177.00 C89.34,184.43 88.51,191.41 88.15,192.53 L 87.50,194.56 L 80.76,192.60 M 412.50,186.63 L 405.50,185.50 L 405.21,176.59 C405.05,171.69 405.27,167.34 405.71,166.92 C406.14,166.50 409.19,166.70 412.48,167.36 L 418.47,168.58 L 420.20,176.04 C421.15,180.14 422.17,184.51 422.48,185.75 C423.12,188.34 423.07,188.34 412.50,186.63 M 111.00,183.75 C111.00,182.51 113.48,158.78 116.52,131.00 C119.55,103.22 122.12,78.59 122.23,76.25 L 122.43,72.00 L 132.72,72.00 C138.54,72.00 143.00,72.41 143.00,72.95 C143.00,73.47 142.12,78.53 141.05,84.20 C139.97,89.86 136.36,109.35 133.01,127.50 C126.92,160.53 123.36,179.53 122.45,183.75 C122.02,185.75 121.35,186.00 116.48,186.00 C111.46,186.00 111.00,185.81 111.00,183.75 M 410.00,160.18 L 403.50,158.50 L 403.79,148.00 C403.95,142.22 404.96,110.73 406.04,78.00 C407.12,45.27 408.00,14.34 408.00,9.25 L 408.00,0.00 L 422.50,0.00 L 437.00,0.00 L 436.96,6.25 C436.91,12.76 436.41,17.36 425.90,107.25 C420.60,152.58 419.24,161.99 418.00,161.93 C417.18,161.89 413.57,161.11 410.00,160.18 M 255.54,145.45 C251.26,140.75 247.93,136.76 248.13,136.59 C248.33,136.42 253.22,133.27 259.00,129.58 C264.77,125.89 278.46,117.06 289.41,109.94 C307.36,98.29 309.43,97.18 310.48,98.76 C311.12,99.71 313.30,103.49 315.31,107.15 L 318.98,113.79 L 291.54,133.90 C276.45,144.95 263.93,154.00 263.72,154.00 C263.50,154.00 259.82,150.15 255.54,145.45 Z" fill="rgba(0,0,0,1)"/>
</g>
</svg>