<svg xmlns="http://www.w3.org/2000/svg" width="260" height="170" viewBox="0 0 260 170">
<g>
<path d="M 41.90,148.72 C38.81,146.35 36.75,140.90 37.33,136.59 C37.93,132.14 41.65,128.00 45.06,128.00 C46.13,128.00 47.06,127.66 47.14,127.25 C47.21,126.84 47.40,104.05 47.57,76.60 C47.80,36.64 48.13,26.54 49.18,25.87 C49.91,25.41 68.28,25.02 90.00,25.01 C111.72,25.00 145.35,24.70 164.73,24.34 L 199.95,23.68 L 201.08,20.26 C203.71,12.29 214.75,10.68 221.75,17.24 C225.03,20.31 224.94,28.15 221.59,31.50 C220.26,32.83 218.01,34.21 216.59,34.57 L 214.00,35.22 L 214.00,89.36 L 214.00,143.50 L 177.25,143.38 C157.04,143.31 122.57,143.12 100.66,142.96 L 60.82,142.67 L 57.46,146.34 C54.39,149.68 53.65,150.00 48.80,149.97 C45.89,149.95 42.78,149.39 41.90,148.72 M 55.03,146.32 C58.15,143.69 58.20,143.53 57.38,138.07 C56.50,132.16 56.29,34.38 57.16,33.51 C57.44,33.23 89.87,32.98 129.21,32.95 C168.56,32.93 200.99,32.68 201.27,32.40 C201.55,32.11 201.27,30.49 200.64,28.79 L 199.50,25.70 L 161.50,26.35 C140.60,26.71 106.96,27.00 86.75,27.00 L 50.00,27.00 L 50.00,78.11 L 50.00,129.21 L 52.50,131.18 C58.38,135.80 53.22,145.49 46.25,142.90 C43.17,141.76 43.06,136.43 46.10,135.47 C47.26,135.10 48.70,135.30 49.30,135.90 C50.10,136.70 49.80,137.00 48.20,137.00 C45.22,137.00 45.22,140.56 48.20,141.34 C50.92,142.05 53.00,140.44 52.98,137.63 C52.97,134.94 52.07,133.60 49.32,132.15 C46.18,130.50 44.28,130.72 42.00,133.00 C39.81,135.19 39.37,139.96 41.06,143.12 C42.32,145.46 47.79,148.99 50.17,149.00 C51.09,149.00 53.28,147.79 55.03,146.32 M 212.00,87.57 C212.00,36.48 211.92,34.11 210.15,33.55 C208.28,32.95 206.00,29.08 206.00,26.50 C206.00,23.82 208.23,20.22 210.54,19.16 C214.92,17.17 220.11,23.49 216.80,26.80 C216.14,27.46 214.97,28.00 214.19,28.00 C213.30,28.00 213.66,27.29 215.13,26.10 C217.45,24.22 217.46,24.16 215.59,22.10 C211.89,18.01 208.00,20.07 208.00,26.13 C208.00,30.77 210.13,33.00 214.57,33.00 C219.45,33.00 222.00,30.11 222.00,24.59 C222.00,20.89 221.50,19.76 218.92,17.59 C214.33,13.73 205.28,14.37 203.53,18.67 C203.13,19.68 202.87,46.04 202.96,77.25 L 203.12,134.00 L 130.96,134.00 C65.56,134.00 58.84,134.15 59.39,135.58 C59.73,136.45 60.00,138.03 60.00,139.08 C60.00,140.96 61.75,141.00 136.00,141.00 L 212.00,141.00 L 212.00,87.57 M 201.60,85.25 C201.26,58.99 200.99,36.71 200.99,35.75 C201.00,34.10 196.93,34.00 129.50,34.00 L 58.00,34.00 L 58.00,83.50 L 58.00,133.00 L 130.11,133.00 L 202.22,133.00 L 201.60,85.25 Z" fill="rgba(0,0,0,1)"/>
</g>
</svg>